<svg xmlns="http://www.w3.org/2000/svg" xmlns:xlink="http://www.w3.org/1999/xlink" width="500" zoomAndPan="magnify" viewBox="0 0 375 112.499997" height="150" preserveAspectRatio="xMidYMid meet" version="1.0"><defs><g/><clipPath id="2463f7bf1a"><path d="M 9.15625 10.683594 L 63.464844 10.683594 L 63.464844 64.992188 L 9.15625 64.992188 Z M 9.15625 10.683594 " clip-rule="nonzero"/></clipPath><clipPath id="119504bd76"><path d="M 36.308594 10.683594 C 21.3125 10.683594 9.15625 22.839844 9.15625 37.835938 C 9.15625 52.832031 21.3125 64.992188 36.308594 64.992188 C 51.308594 64.992188 63.464844 52.832031 63.464844 37.835938 C 63.464844 22.839844 51.308594 10.683594 36.308594 10.683594 Z M 36.308594 10.683594 " clip-rule="nonzero"/></clipPath><clipPath id="2810b0fb33"><path d="M 53.53125 0.191406 L 70.351562 0.191406 L 70.351562 17.015625 L 53.53125 17.015625 Z M 53.53125 0.191406 " clip-rule="nonzero"/></clipPath><clipPath id="7108db7545"><path d="M 61.941406 0.191406 C 57.296875 0.191406 53.53125 3.957031 53.53125 8.605469 C 53.53125 13.25 57.296875 17.015625 61.941406 17.015625 C 66.585938 17.015625 70.351562 13.25 70.351562 8.605469 C 70.351562 3.957031 66.585938 0.191406 61.941406 0.191406 Z M 61.941406 0.191406 " clip-rule="nonzero"/></clipPath><clipPath id="a12790489c"><path d="M 0.828125 0 L 126 0 L 126 92 L 0.828125 92 Z M 0.828125 0 " clip-rule="nonzero"/></clipPath><clipPath id="f314456193"><path d="M 4.527344 82.636719 L 21.347656 82.636719 L 21.347656 99.460938 L 4.527344 99.460938 Z M 4.527344 82.636719 " clip-rule="nonzero"/></clipPath><clipPath id="ce47d495d3"><path d="M 12.9375 82.636719 C 8.292969 82.636719 4.527344 86.402344 4.527344 91.046875 C 4.527344 95.695312 8.292969 99.460938 12.9375 99.460938 C 17.582031 99.460938 21.347656 95.695312 21.347656 91.046875 C 21.347656 86.402344 17.582031 82.636719 12.9375 82.636719 Z M 12.9375 82.636719 " clip-rule="nonzero"/></clipPath><clipPath id="f6df75db0a"><path d="M 0.828125 0 L 132 0 L 132 112.003906 L 0.828125 112.003906 Z M 0.828125 0 " clip-rule="nonzero"/></clipPath></defs><g fill="#000000" fill-opacity="1"><g transform="translate(70.640473, 76.020056)"><g><path d="M 8.328125 -55.84375 L 22.75 -55.84375 L 22.75 -46.203125 L 23.765625 -46.203125 C 24.304688 -49.648438 25.894531 -52.285156 28.53125 -54.109375 C 31.175781 -55.941406 34.664062 -56.859375 39 -56.859375 C 45.15625 -56.859375 49.925781 -54.976562 53.3125 -51.21875 C 56.695312 -47.46875 58.390625 -42.242188 58.390625 -35.546875 L 58.390625 -30.96875 L 42.140625 -30.96875 L 42.140625 -34.53125 C 42.140625 -37.570312 41.257812 -39.9375 39.5 -41.625 C 37.738281 -43.320312 35.335938 -44.171875 32.296875 -44.171875 C 29.585938 -44.171875 27.453125 -43.304688 25.890625 -41.578125 C 24.335938 -39.859375 23.5625 -37.507812 23.5625 -34.53125 L 23.5625 0 L 8.328125 0 Z M 8.328125 -55.84375 "/></g></g></g><g fill="#000000" fill-opacity="1"><g transform="translate(131.562693, 76.020056)"><g><path d="M 4.359375 -15.234375 C 4.359375 -20.921875 6.421875 -25.40625 10.546875 -28.6875 C 14.679688 -31.96875 20.304688 -33.609375 27.421875 -33.609375 L 39.5 -33.609375 L 39.5 -38.59375 C 39.5 -40.550781 38.671875 -42.140625 37.015625 -43.359375 C 35.359375 -44.578125 33.109375 -45.1875 30.265625 -45.1875 C 27.753906 -45.1875 25.671875 -44.726562 24.015625 -43.8125 C 22.359375 -42.90625 21.289062 -41.671875 20.8125 -40.109375 L 6.09375 -40.109375 C 6.5 -42.679688 7.359375 -45 8.671875 -47.0625 C 9.992188 -49.132812 11.703125 -50.894531 13.796875 -52.34375 C 15.898438 -53.800781 18.335938 -54.914062 21.109375 -55.6875 C 23.890625 -56.46875 26.941406 -56.859375 30.265625 -56.859375 C 33.921875 -56.859375 37.253906 -56.414062 40.265625 -55.53125 C 43.273438 -54.65625 45.84375 -53.421875 47.96875 -51.828125 C 50.101562 -50.242188 51.765625 -48.332031 52.953125 -46.09375 C 54.140625 -43.863281 54.734375 -41.363281 54.734375 -38.59375 L 54.734375 0 L 40.21875 0 L 40.21875 -11.171875 L 39.296875 -11.171875 C 38.828125 -7.378906 37.050781 -4.398438 33.96875 -2.234375 C 30.882812 -0.0664062 26.972656 1.015625 22.234375 1.015625 C 16.753906 1.015625 12.40625 -0.4375 9.1875 -3.34375 C 5.96875 -6.257812 4.359375 -10.222656 4.359375 -15.234375 Z M 28.4375 -10.65625 C 31.6875 -10.65625 34.34375 -11.414062 36.40625 -12.9375 C 38.46875 -14.46875 39.5 -16.414062 39.5 -18.78125 L 39.5 -24.46875 L 27.421875 -24.46875 C 25.046875 -24.46875 23.144531 -23.875 21.71875 -22.6875 C 20.300781 -21.507812 19.59375 -19.835938 19.59375 -17.671875 C 19.59375 -15.503906 20.351562 -13.789062 21.875 -12.53125 C 23.40625 -11.28125 25.59375 -10.65625 28.4375 -10.65625 Z M 28.4375 -10.65625 "/></g></g></g><g fill="#000000" fill-opacity="1"><g transform="translate(192.484912, 76.020056)"><g><path d="M 4.96875 -36.5625 L 4.96875 -50.265625 L 19.796875 -50.265625 L 19.796875 -56.859375 C 19.796875 -59.429688 20.253906 -61.785156 21.171875 -63.921875 C 22.085938 -66.054688 23.390625 -67.882812 25.078125 -69.40625 C 26.773438 -70.925781 28.804688 -72.09375 31.171875 -72.90625 C 33.546875 -73.71875 36.1875 -74.125 39.09375 -74.125 L 55.4375 -74.125 L 55.4375 -60.921875 L 39.609375 -60.921875 C 38.253906 -60.921875 37.148438 -60.5 36.296875 -59.65625 C 35.453125 -58.8125 35.03125 -57.710938 35.03125 -56.359375 L 35.03125 -50.265625 L 55.4375 -50.265625 L 55.4375 -36.5625 L 35.03125 -36.5625 L 35.03125 0 L 19.796875 0 L 19.796875 -36.5625 Z M 4.96875 -36.5625 "/></g></g></g><g fill="#000000" fill-opacity="1"><g transform="translate(253.407131, 76.020056)"><g><path d="M 4.96875 -36.5625 L 4.96875 -50.265625 L 19.796875 -50.265625 L 19.796875 -56.859375 C 19.796875 -59.429688 20.253906 -61.785156 21.171875 -63.921875 C 22.085938 -66.054688 23.390625 -67.882812 25.078125 -69.40625 C 26.773438 -70.925781 28.804688 -72.09375 31.171875 -72.90625 C 33.546875 -73.71875 36.1875 -74.125 39.09375 -74.125 L 55.4375 -74.125 L 55.4375 -60.921875 L 39.609375 -60.921875 C 38.253906 -60.921875 37.148438 -60.5 36.296875 -59.65625 C 35.453125 -58.8125 35.03125 -57.710938 35.03125 -56.359375 L 35.03125 -50.265625 L 55.4375 -50.265625 L 55.4375 -36.5625 L 35.03125 -36.5625 L 35.03125 0 L 19.796875 0 L 19.796875 -36.5625 Z M 4.96875 -36.5625 "/></g></g></g><g fill="#000000" fill-opacity="1"><g transform="translate(314.32935, 76.020056)"><g><path d="M 20.109375 -21.328125 C 20.109375 -18.546875 21.035156 -16.34375 22.890625 -14.71875 C 24.753906 -13.09375 27.28125 -12.28125 30.46875 -12.28125 C 33.644531 -12.28125 36.164062 -13.09375 38.03125 -14.71875 C 39.894531 -16.34375 40.828125 -18.546875 40.828125 -21.328125 L 40.828125 -34.625 C 40.828125 -37.40625 39.894531 -39.609375 38.03125 -41.234375 C 36.164062 -42.859375 33.644531 -43.671875 30.46875 -43.671875 C 27.28125 -43.671875 24.753906 -42.859375 22.890625 -41.234375 C 21.035156 -39.609375 20.109375 -37.40625 20.109375 -34.625 Z M 4.875 -34.625 C 4.875 -37.875 5.484375 -40.867188 6.703125 -43.609375 C 7.921875 -46.359375 9.644531 -48.710938 11.875 -50.671875 C 14.113281 -52.628906 16.804688 -54.148438 19.953125 -55.234375 C 23.097656 -56.316406 26.601562 -56.859375 30.46875 -56.859375 C 34.320312 -56.859375 37.820312 -56.316406 40.96875 -55.234375 C 44.125 -54.148438 46.816406 -52.628906 49.046875 -50.671875 C 51.273438 -48.710938 53 -46.359375 54.21875 -43.609375 C 55.4375 -40.867188 56.046875 -37.875 56.046875 -34.625 L 56.046875 -21.328125 C 56.046875 -18.078125 55.4375 -15.078125 54.21875 -12.328125 C 53 -9.585938 51.273438 -7.21875 49.046875 -5.21875 C 46.816406 -3.226562 44.125 -1.691406 40.96875 -0.609375 C 37.820312 0.472656 34.320312 1.015625 30.46875 1.015625 C 26.601562 1.015625 23.097656 0.472656 19.953125 -0.609375 C 16.804688 -1.691406 14.113281 -3.226562 11.875 -5.21875 C 9.644531 -7.21875 7.921875 -9.585938 6.703125 -12.328125 C 5.484375 -15.078125 4.875 -18.078125 4.875 -21.328125 Z M 4.875 -34.625 "/></g></g></g><g clip-path="url(#2463f7bf1a)"><g clip-path="url(#119504bd76)"><path stroke-linecap="butt" transform="matrix(0.746681, 0, 0, 0.746681, 9.155719, 10.682135)" fill="none" stroke-linejoin="miter" d="M 36.364741 0.00195407 C 16.281082 0.00195407 0.00071078 16.282326 0.00071078 36.365984 C 0.00071078 56.449643 16.281082 72.735246 36.364741 72.735246 C 56.453631 72.735246 72.734003 56.449643 72.734003 36.365984 C 72.734003 16.282326 56.453631 0.00195407 36.364741 0.00195407 Z M 36.364741 0.00195407 " stroke="#00bf63" stroke-width="32" stroke-opacity="1" stroke-miterlimit="4"/></g></g><g clip-path="url(#2810b0fb33)"><g clip-path="url(#7108db7545)"><path stroke-linecap="butt" transform="matrix(0.746681, 0, 0, 0.746681, 53.529744, 0.191974)" fill="none" stroke-linejoin="miter" d="M 11.265398 -0.000760394 C 5.045166 -0.000760394 0.00201759 5.042388 0.00201759 11.267852 C 0.00201759 17.488083 5.045166 22.531232 11.265398 22.531232 C 17.48563 22.531232 22.528778 17.488083 22.528778 11.267852 C 22.528778 5.042388 17.48563 -0.000760394 11.265398 -0.000760394 Z M 11.265398 -0.000760394 " stroke="#00bf63" stroke-width="14" stroke-opacity="1" stroke-miterlimit="4"/></g></g><g clip-path="url(#a12790489c)"><path stroke-linecap="butt" transform="matrix(0.527983, -0.527983, 0.527983, 0.527983, 42.038384, 20.063053)" fill="none" stroke-linejoin="miter" d="M 0.00116598 7.997824 L 22.129878 7.997824 " stroke="#00bf63" stroke-width="16" stroke-opacity="1" stroke-miterlimit="4"/></g><g clip-path="url(#f314456193)"><g clip-path="url(#ce47d495d3)"><path stroke-linecap="butt" transform="matrix(0.746681, 0, 0, 0.746681, 4.525891, 82.636918)" fill="none" stroke-linejoin="miter" d="M 11.265326 -0.000267002 C 5.045094 -0.000267002 0.00194587 5.042882 0.00194587 11.263113 C 0.00194587 17.488577 5.045094 22.531725 11.265326 22.531725 C 17.485558 22.531725 22.528707 17.488577 22.528707 11.263113 C 22.528707 5.042882 17.485558 -0.000267002 11.265326 -0.000267002 Z M 11.265326 -0.000267002 " stroke="#00bf63" stroke-width="14" stroke-opacity="1" stroke-miterlimit="4"/></g></g><g clip-path="url(#f6df75db0a)"><path stroke-linecap="butt" transform="matrix(0.746681, 0, 0, 0.746681, 6.967093, 59.078462)" fill="none" stroke-linejoin="miter" d="M 39.30111 -0.000450856 L 39.30111 15.704458 C 39.30111 20.119828 42.884675 23.703393 47.305277 23.703393 L 68.581714 23.703393 C 73.002316 23.703393 76.58065 27.281727 76.58065 31.702329 L 76.58065 51.534877 C 76.58065 55.955479 73.002316 59.533813 68.581714 59.533813 L 12.662405 59.533813 C 10.088516 59.533813 8.001154 57.446451 8.001154 54.872562 L 8.001154 50.211312 " stroke="#00bf63" stroke-width="16" stroke-opacity="1" stroke-miterlimit="4"/></g></svg>