<svg xmlns="http://www.w3.org/2000/svg" xmlns:xlink="http://www.w3.org/1999/xlink" width="500" zoomAndPan="magnify" viewBox="0 0 375 374.999991" height="500" preserveAspectRatio="xMidYMid meet" version="1.0"><defs><clipPath id="e8c6aff2c7"><path d="M 89.96875 37.4375 L 274.292969 37.4375 L 274.292969 221.761719 L 89.96875 221.761719 Z M 89.96875 37.4375 " clip-rule="nonzero"/></clipPath><clipPath id="ed7f2123ec"><path d="M 182.132812 37.4375 C 131.230469 37.4375 89.96875 78.699219 89.96875 129.597656 C 89.96875 180.5 131.230469 221.761719 182.132812 221.761719 C 233.03125 221.761719 274.292969 180.5 274.292969 129.597656 C 274.292969 78.699219 233.03125 37.4375 182.132812 37.4375 Z M 182.132812 37.4375 " clip-rule="nonzero"/></clipPath><clipPath id="cb4ad6968a"><path d="M 240.558594 1.835938 L 297.558594 1.835938 L 297.558594 58.835938 L 240.558594 58.835938 Z M 240.558594 1.835938 " clip-rule="nonzero"/></clipPath><clipPath id="5f35cf1512"><path d="M 269.113281 1.835938 C 253.34375 1.835938 240.558594 14.621094 240.558594 30.390625 C 240.558594 46.160156 253.34375 58.941406 269.113281 58.941406 C 284.882812 58.941406 297.664062 46.160156 297.664062 30.390625 C 297.664062 14.621094 284.882812 1.835938 269.113281 1.835938 Z M 269.113281 1.835938 " clip-rule="nonzero"/></clipPath><clipPath id="e0ed26a4dc"><path d="M 74.257812 281.625 L 131.257812 281.625 L 131.257812 338.625 L 74.257812 338.625 Z M 74.257812 281.625 " clip-rule="nonzero"/></clipPath><clipPath id="0b4d2a53bd"><path d="M 102.8125 281.625 C 87.042969 281.625 74.257812 294.410156 74.257812 310.179688 C 74.257812 325.949219 87.042969 338.730469 102.8125 338.730469 C 118.578125 338.730469 131.363281 325.949219 131.363281 310.179688 C 131.363281 294.410156 118.578125 281.625 102.8125 281.625 Z M 102.8125 281.625 " clip-rule="nonzero"/></clipPath></defs><g clip-path="url(#e8c6aff2c7)"><g clip-path="url(#ed7f2123ec)"><path stroke-linecap="butt" transform="matrix(0.75, 0, 0, 0.75, 89.969867, 37.437353)" fill="none" stroke-linejoin="miter" d="M 122.883944 0.000195385 C 55.014143 0.000195385 -0.00148879 55.015828 -0.00148879 122.88042 C -0.00148879 190.75022 55.014143 245.765852 122.883944 245.765852 C 190.748536 245.765852 245.764168 190.75022 245.764168 122.88042 C 245.764168 55.015828 190.748536 0.000195385 122.883944 0.000195385 Z M 122.883944 0.000195385 " stroke="#00bf63" stroke-width="112" stroke-opacity="1" stroke-miterlimit="4"/></g></g><g clip-path="url(#cb4ad6968a)"><g clip-path="url(#5f35cf1512)"><path stroke-linecap="butt" transform="matrix(0.75, 0, 0, 0.75, 240.559398, 1.837507)" fill="none" stroke-linejoin="miter" d="M 38.071847 -0.00209277 C 17.045804 -0.00209277 -0.00107167 17.044783 -0.00107167 38.070826 C -0.00107167 59.096869 17.045804 76.138537 38.071847 76.138537 C 59.097891 76.138537 76.139558 59.096869 76.139558 38.070826 C 76.139558 17.044783 59.097891 -0.00209277 38.071847 -0.00209277 Z M 38.071847 -0.00209277 " stroke="#00bf63" stroke-width="40" stroke-opacity="1" stroke-miterlimit="4"/></g></g><path stroke-linecap="butt" transform="matrix(0.53033, -0.53033, 0.53033, 0.53033, 201.313542, 69.026626)" fill="none" stroke-linejoin="miter" d="M 0.00202392 27.499521 L 74.771205 27.499521 " stroke="#00bf63" stroke-width="55" stroke-opacity="1" stroke-miterlimit="4"/><g clip-path="url(#e0ed26a4dc)"><g clip-path="url(#0b4d2a53bd)"><path stroke-linecap="butt" transform="matrix(0.75, 0, 0, 0.75, 74.257888, 281.626095)" fill="none" stroke-linejoin="miter" d="M 38.072818 -0.00146014 C 17.046775 -0.00146014 -0.000101232 17.045416 -0.000101232 38.071459 C -0.000101232 59.097502 17.046775 76.13917 38.072818 76.13917 C 59.093653 76.13917 76.140529 59.097502 76.140529 38.071459 C 76.140529 17.045416 59.093653 -0.00146014 38.072818 -0.00146014 Z M 38.072818 -0.00146014 " stroke="#00bf63" stroke-width="40" stroke-opacity="1" stroke-miterlimit="4"/></g></g><path stroke-linecap="butt" transform="matrix(0.75, 0, 0, 0.75, 82.189204, 201.67714)" fill="none" stroke-linejoin="miter" d="M 133.263362 -0.00181108 L 133.263362 54.081526 C 133.263362 68.440902 144.903988 80.081528 159.263364 80.081528 L 233.211285 80.081528 C 247.570661 80.081528 259.211287 91.722153 259.211287 106.081529 L 259.211287 175.149242 C 259.211287 189.508618 247.570661 201.149244 233.211285 201.149244 L 43.252939 201.149244 C 39.075856 201.149244 35.065439 199.487785 32.112314 196.53466 C 29.159188 193.581535 27.49773 189.571118 27.49773 185.394034 L 27.49773 169.644033 " stroke="#00bf63" stroke-width="55" stroke-opacity="1" stroke-miterlimit="4"/></svg>