<svg xmlns="http://www.w3.org/2000/svg" xmlns:xlink="http://www.w3.org/1999/xlink" width="500" zoomAndPan="magnify" viewBox="0 0 375 112.499997" height="150" preserveAspectRatio="xMidYMid meet" version="1.0"><defs><g/><clipPath id="3d895d90e2"><path d="M 9.15625 10.683594 L 63.464844 10.683594 L 63.464844 64.992188 L 9.15625 64.992188 Z M 9.15625 10.683594 " clip-rule="nonzero"/></clipPath><clipPath id="6f2d500fea"><path d="M 36.308594 10.683594 C 21.3125 10.683594 9.15625 22.839844 9.15625 37.835938 C 9.15625 52.832031 21.3125 64.992188 36.308594 64.992188 C 51.308594 64.992188 63.464844 52.832031 63.464844 37.835938 C 63.464844 22.839844 51.308594 10.683594 36.308594 10.683594 Z M 36.308594 10.683594 " clip-rule="nonzero"/></clipPath><clipPath id="1e43d1ea27"><path d="M 53.53125 0.191406 L 70.351562 0.191406 L 70.351562 17.015625 L 53.53125 17.015625 Z M 53.53125 0.191406 " clip-rule="nonzero"/></clipPath><clipPath id="ded327f696"><path d="M 61.941406 0.191406 C 57.296875 0.191406 53.53125 3.957031 53.53125 8.605469 C 53.53125 13.25 57.296875 17.015625 61.941406 17.015625 C 66.585938 17.015625 70.351562 13.25 70.351562 8.605469 C 70.351562 3.957031 66.585938 0.191406 61.941406 0.191406 Z M 61.941406 0.191406 " clip-rule="nonzero"/></clipPath><clipPath id="5b24b9a82e"><path d="M 0.828125 0 L 126 0 L 126 92 L 0.828125 92 Z M 0.828125 0 " clip-rule="nonzero"/></clipPath><clipPath id="816b0ea9b2"><path d="M 4.527344 82.636719 L 21.347656 82.636719 L 21.347656 99.460938 L 4.527344 99.460938 Z M 4.527344 82.636719 " clip-rule="nonzero"/></clipPath><clipPath id="fdd7f4b2c6"><path d="M 12.9375 82.636719 C 8.292969 82.636719 4.527344 86.402344 4.527344 91.046875 C 4.527344 95.695312 8.292969 99.460938 12.9375 99.460938 C 17.582031 99.460938 21.347656 95.695312 21.347656 91.046875 C 21.347656 86.402344 17.582031 82.636719 12.9375 82.636719 Z M 12.9375 82.636719 " clip-rule="nonzero"/></clipPath><clipPath id="7e13fc18af"><path d="M 0.828125 0 L 132 0 L 132 112.003906 L 0.828125 112.003906 Z M 0.828125 0 " clip-rule="nonzero"/></clipPath></defs><g fill="#000000" fill-opacity="1"><g transform="translate(70.640473, 76.020056)"><g><path d="M 8.328125 -55.84375 L 22.75 -55.84375 L 22.75 -46.203125 L 23.765625 -46.203125 C 24.304688 -49.648438 25.894531 -52.285156 28.53125 -54.109375 C 31.175781 -55.941406 34.664062 -56.859375 39 -56.859375 C 45.15625 -56.859375 49.925781 -54.976562 53.3125 -51.21875 C 56.695312 -47.46875 58.390625 -42.242188 58.390625 -35.546875 L 58.390625 -30.96875 L 42.140625 -30.96875 L 42.140625 -34.53125 C 42.140625 -37.570312 41.257812 -39.9375 39.5 -41.625 C 37.738281 -43.320312 35.335938 -44.171875 32.296875 -44.171875 C 29.585938 -44.171875 27.453125 -43.304688 25.890625 -41.578125 C 24.335938 -39.859375 23.5625 -37.507812 23.5625 -34.53125 L 23.5625 0 L 8.328125 0 Z M 8.328125 -55.84375 "/></g></g></g><g fill="#000000" fill-opacity="1"><g transform="translate(131.562693, 76.020056)"><g><path d="M 4.359375 -15.234375 C 4.359375 -20.921875 6.421875 -25.40625 10.546875 -28.6875 C 14.679688 -31.96875 20.304688 -33.609375 27.421875 -33.609375 L 39.5 -33.609375 L 39.5 -38.59375 C 39.5 -40.550781 38.671875 -42.140625 37.015625 -43.359375 C 35.359375 -44.578125 33.109375 -45.1875 30.265625 -45.1875 C 27.753906 -45.1875 25.671875 -44.726562 24.015625 -43.8125 C 22.359375 -42.90625 21.289062 -41.671875 20.8125 -40.109375 L 6.09375 -40.109375 C 6.5 -42.679688 7.359375 -45 8.671875 -47.0625 C 9.992188 -49.132812 11.703125 -50.894531 13.796875 -52.34375 C 15.898438 -53.800781 18.335938 -54.914062 21.109375 -55.6875 C 23.890625 -56.46875 26.941406 -56.859375 30.265625 -56.859375 C 33.921875 -56.859375 37.253906 -56.414062 40.265625 -55.53125 C 43.273438 -54.65625 45.84375 -53.421875 47.96875 -51.828125 C 50.101562 -50.242188 51.765625 -48.332031 52.953125 -46.09375 C 54.140625 -43.863281 54.734375 -41.363281 54.734375 -38.59375 L 54.734375 0 L 40.21875 0 L 40.21875 -11.171875 L 39.296875 -11.171875 C 38.828125 -7.378906 37.050781 -4.398438 33.96875 -2.234375 C 30.882812 -0.0664062 26.972656 1.015625 22.234375 1.015625 C 16.753906 1.015625 12.40625 -0.4375 9.1875 -3.34375 C 5.96875 -6.257812 4.359375 -10.222656 4.359375 -15.234375 Z M 28.4375 -10.65625 C 31.6875 -10.65625 34.34375 -11.414062 36.40625 -12.9375 C 38.46875 -14.46875 39.5 -16.414062 39.5 -18.78125 L 39.5 -24.46875 L 27.421875 -24.46875 C 25.046875 -24.46875 23.144531 -23.875 21.71875 -22.6875 C 20.300781 -21.507812 19.59375 -19.835938 19.59375 -17.671875 C 19.59375 -15.503906 20.351562 -13.789062 21.875 -12.53125 C 23.40625 -11.28125 25.59375 -10.65625 28.4375 -10.65625 Z M 28.4375 -10.65625 "/></g></g></g><g fill="#000000" fill-opacity="1"><g transform="translate(192.484912, 76.020056)"><g><path d="M 4.96875 -36.5625 L 4.96875 -50.265625 L 19.796875 -50.265625 L 19.796875 -56.859375 C 19.796875 -59.429688 20.253906 -61.785156 21.171875 -63.921875 C 22.085938 -66.054688 23.390625 -67.882812 25.078125 -69.40625 C 26.773438 -70.925781 28.804688 -72.09375 31.171875 -72.90625 C 33.546875 -73.71875 36.1875 -74.125 39.09375 -74.125 L 55.4375 -74.125 L 55.4375 -60.921875 L 39.609375 -60.921875 C 38.253906 -60.921875 37.148438 -60.5 36.296875 -59.65625 C 35.453125 -58.8125 35.03125 -57.710938 35.03125 -56.359375 L 35.03125 -50.265625 L 55.4375 -50.265625 L 55.4375 -36.5625 L 35.03125 -36.5625 L 35.03125 0 L 19.796875 0 L 19.796875 -36.5625 Z M 4.96875 -36.5625 "/></g></g></g><g fill="#000000" fill-opacity="1"><g transform="translate(253.407131, 76.020056)"><g><path d="M 4.96875 -36.5625 L 4.96875 -50.265625 L 19.796875 -50.265625 L 19.796875 -56.859375 C 19.796875 -59.429688 20.253906 -61.785156 21.171875 -63.921875 C 22.085938 -66.054688 23.390625 -67.882812 25.078125 -69.40625 C 26.773438 -70.925781 28.804688 -72.09375 31.171875 -72.90625 C 33.546875 -73.71875 36.1875 -74.125 39.09375 -74.125 L 55.4375 -74.125 L 55.4375 -60.921875 L 39.609375 -60.921875 C 38.253906 -60.921875 37.148438 -60.5 36.296875 -59.65625 C 35.453125 -58.8125 35.03125 -57.710938 35.03125 -56.359375 L 35.03125 -50.265625 L 55.4375 -50.265625 L 55.4375 -36.5625 L 35.03125 -36.5625 L 35.03125 0 L 19.796875 0 L 19.796875 -36.5625 Z M 4.96875 -36.5625 "/></g></g></g><g fill="#000000" fill-opacity="1"><g transform="translate(314.32935, 76.020056)"><g><path d="M 20.109375 -21.328125 C 20.109375 -18.546875 21.035156 -16.34375 22.890625 -14.71875 C 24.753906 -13.09375 27.28125 -12.28125 30.46875 -12.28125 C 33.644531 -12.28125 36.164062 -13.09375 38.03125 -14.71875 C 39.894531 -16.34375 40.828125 -18.546875 40.828125 -21.328125 L 40.828125 -34.625 C 40.828125 -37.40625 39.894531 -39.609375 38.03125 -41.234375 C 36.164062 -42.859375 33.644531 -43.671875 30.46875 -43.671875 C 27.28125 -43.671875 24.753906 -42.859375 22.890625 -41.234375 C 21.035156 -39.609375 20.109375 -37.40625 20.109375 -34.625 Z M 4.875 -34.625 C 4.875 -37.875 5.484375 -40.867188 6.703125 -43.609375 C 7.921875 -46.359375 9.644531 -48.710938 11.875 -50.671875 C 14.113281 -52.628906 16.804688 -54.148438 19.953125 -55.234375 C 23.097656 -56.316406 26.601562 -56.859375 30.46875 -56.859375 C 34.320312 -56.859375 37.820312 -56.316406 40.96875 -55.234375 C 44.125 -54.148438 46.816406 -52.628906 49.046875 -50.671875 C 51.273438 -48.710938 53 -46.359375 54.21875 -43.609375 C 55.4375 -40.867188 56.046875 -37.875 56.046875 -34.625 L 56.046875 -21.328125 C 56.046875 -18.078125 55.4375 -15.078125 54.21875 -12.328125 C 53 -9.585938 51.273438 -7.21875 49.046875 -5.21875 C 46.816406 -3.226562 44.125 -1.691406 40.96875 -0.609375 C 37.820312 0.472656 34.320312 1.015625 30.46875 1.015625 C 26.601562 1.015625 23.097656 0.472656 19.953125 -0.609375 C 16.804688 -1.691406 14.113281 -3.226562 11.875 -5.21875 C 9.644531 -7.21875 7.921875 -9.585938 6.703125 -12.328125 C 5.484375 -15.078125 4.875 -18.078125 4.875 -21.328125 Z M 4.875 -34.625 "/></g></g></g><g clip-path="url(#3d895d90e2)"><g clip-path="url(#6f2d500fea)"><path stroke-linecap="butt" transform="matrix(0.746681, 0, 0, 0.746681, 9.155719, 10.682135)" fill="none" stroke-linejoin="miter" d="M 36.364741 0.00195407 C 16.281082 0.00195407 0.00071078 16.282326 0.00071078 36.365984 C 0.00071078 56.449643 16.281082 72.735246 36.364741 72.735246 C 56.453631 72.735246 72.734003 56.449643 72.734003 36.365984 C 72.734003 16.282326 56.453631 0.00195407 36.364741 0.00195407 Z M 36.364741 0.00195407 " stroke="#00bf63" stroke-width="32" stroke-opacity="1" stroke-miterlimit="4"/></g></g><g clip-path="url(#1e43d1ea27)"><g clip-path="url(#ded327f696)"><path stroke-linecap="butt" transform="matrix(0.746681, 0, 0, 0.746681, 53.529744, 0.191974)" fill="none" stroke-linejoin="miter" d="M 11.265398 -0.000760394 C 5.045166 -0.000760394 0.00201759 5.042388 0.00201759 11.267852 C 0.00201759 17.488083 5.045166 22.531232 11.265398 22.531232 C 17.48563 22.531232 22.528778 17.488083 22.528778 11.267852 C 22.528778 5.042388 17.48563 -0.000760394 11.265398 -0.000760394 Z M 11.265398 -0.000760394 " stroke="#00bf63" stroke-width="14" stroke-opacity="1" stroke-miterlimit="4"/></g></g><g clip-path="url(#5b24b9a82e)"><path stroke-linecap="butt" transform="matrix(0.527983, -0.527983, 0.527983, 0.527983, 42.038384, 20.063053)" fill="none" stroke-linejoin="miter" d="M 0.00116598 7.997824 L 22.129878 7.997824 " stroke="#00bf63" stroke-width="16" stroke-opacity="1" stroke-miterlimit="4"/></g><g clip-path="url(#816b0ea9b2)"><g clip-path="url(#fdd7f4b2c6)"><path stroke-linecap="butt" transform="matrix(0.746681, 0, 0, 0.746681, 4.525891, 82.636918)" fill="none" stroke-linejoin="miter" d="M 11.265326 -0.000267002 C 5.045094 -0.000267002 0.00194587 5.042882 0.00194587 11.263113 C 0.00194587 17.488577 5.045094 22.531725 11.265326 22.531725 C 17.485558 22.531725 22.528707 17.488577 22.528707 11.263113 C 22.528707 5.042882 17.485558 -0.000267002 11.265326 -0.000267002 Z M 11.265326 -0.000267002 " stroke="#00bf63" stroke-width="14" stroke-opacity="1" stroke-miterlimit="4"/></g></g><g clip-path="url(#7e13fc18af)"><path stroke-linecap="butt" transform="matrix(0.746681, 0, 0, 0.746681, 6.967093, 59.078462)" fill="none" stroke-linejoin="miter" d="M 39.30111 -0.000450856 L 39.30111 15.704458 C 39.30111 20.119828 42.884675 23.703393 47.305277 23.703393 L 68.581714 23.703393 C 73.002316 23.703393 76.58065 27.281727 76.58065 31.702329 L 76.58065 51.534877 C 76.58065 55.955479 73.002316 59.533813 68.581714 59.533813 L 12.662405 59.533813 C 10.088516 59.533813 8.001154 57.446451 8.001154 54.872562 L 8.001154 50.211312 " stroke="#00bf63" stroke-width="16" stroke-opacity="1" stroke-miterlimit="4"/></g><g fill="#737373" fill-opacity="1"><g transform="translate(88.056765, 100.806163)"><g><path d="M 0.875 0 L 4.78125 -14.328125 L 7.28125 -14.328125 L 11.0625 0 L 9.15625 0 L 8.15625 -4.046875 L 3.765625 -4.046875 L 2.75 0 Z M 4.140625 -5.53125 L 7.796875 -5.53125 L 6.40625 -11.203125 C 6.34375 -11.484375 6.285156 -11.738281 6.234375 -11.96875 C 6.179688 -12.207031 6.140625 -12.414062 6.109375 -12.59375 C 6.085938 -12.800781 6.0625 -12.984375 6.03125 -13.140625 L 5.953125 -13.140625 C 5.921875 -12.984375 5.890625 -12.800781 5.859375 -12.59375 C 5.828125 -12.414062 5.785156 -12.207031 5.734375 -11.96875 C 5.679688 -11.738281 5.617188 -11.484375 5.546875 -11.203125 Z M 4.140625 -5.53125 "/></g></g></g><g fill="#737373" fill-opacity="1"><g transform="translate(99.998961, 100.806163)"><g><path d="M 5.0625 -1.578125 L 5.0625 -12.765625 L 1.890625 -12.765625 L 1.890625 -14.328125 L 10.046875 -14.328125 L 10.046875 -12.765625 L 6.890625 -12.765625 L 6.890625 -1.578125 L 10.046875 -1.578125 L 10.046875 0 L 1.890625 0 L 1.890625 -1.578125 Z M 5.0625 -1.578125 "/></g></g></g><g fill="#737373" fill-opacity="1"><g transform="translate(111.941158, 100.806163)"><g/></g></g><g fill="#737373" fill-opacity="1"><g transform="translate(123.883354, 100.806163)"><g><path d="M 1.796875 -14.328125 L 3.578125 -14.328125 L 3.578125 -8.234375 L 5.875 -8.234375 L 9.140625 -14.328125 L 11.25 -14.328125 L 7.4375 -7.53125 L 11.453125 0 L 9.3125 0 L 5.875 -6.671875 L 3.578125 -6.671875 L 3.578125 0 L 1.796875 0 Z M 1.796875 -14.328125 "/></g></g></g><g fill="#737373" fill-opacity="1"><g transform="translate(135.82555, 100.806163)"><g><path d="M 1.75 0 L 1.75 -10.953125 L 3.4375 -10.953125 L 3.4375 -9.0625 L 3.609375 -9.0625 C 3.773438 -9.71875 4.117188 -10.226562 4.640625 -10.59375 C 5.171875 -10.957031 5.828125 -11.140625 6.609375 -11.140625 C 7.148438 -11.140625 7.644531 -11.046875 8.09375 -10.859375 C 8.539062 -10.679688 8.914062 -10.421875 9.21875 -10.078125 C 9.53125 -9.742188 9.773438 -9.335938 9.953125 -8.859375 C 10.128906 -8.390625 10.21875 -7.863281 10.21875 -7.28125 L 10.21875 0 L 8.421875 0 L 8.421875 -6.984375 C 8.421875 -7.816406 8.207031 -8.46875 7.78125 -8.9375 C 7.351562 -9.40625 6.765625 -9.640625 6.015625 -9.640625 C 5.253906 -9.640625 4.648438 -9.390625 4.203125 -8.890625 C 3.765625 -8.390625 3.546875 -7.71875 3.546875 -6.875 L 3.546875 0 Z M 1.75 0 "/></g></g></g><g fill="#737373" fill-opacity="1"><g transform="translate(147.767746, 100.806163)"><g><path d="M 3.390625 -4.078125 C 3.390625 -3.242188 3.613281 -2.585938 4.0625 -2.109375 C 4.519531 -1.628906 5.15625 -1.390625 5.96875 -1.390625 C 6.769531 -1.390625 7.398438 -1.628906 7.859375 -2.109375 C 8.328125 -2.585938 8.5625 -3.242188 8.5625 -4.078125 L 8.5625 -6.875 C 8.5625 -7.707031 8.328125 -8.363281 7.859375 -8.84375 C 7.398438 -9.320312 6.769531 -9.5625 5.96875 -9.5625 C 5.175781 -9.5625 4.546875 -9.320312 4.078125 -8.84375 C 3.617188 -8.363281 3.390625 -7.707031 3.390625 -6.875 Z M 1.59375 -6.875 C 1.59375 -7.53125 1.691406 -8.117188 1.890625 -8.640625 C 2.097656 -9.171875 2.390625 -9.617188 2.765625 -9.984375 C 3.148438 -10.359375 3.609375 -10.644531 4.140625 -10.84375 C 4.679688 -11.039062 5.289062 -11.140625 5.96875 -11.140625 C 7.320312 -11.140625 8.390625 -10.757812 9.171875 -10 C 9.953125 -9.25 10.34375 -8.210938 10.34375 -6.890625 L 10.34375 -4.078125 C 10.34375 -3.410156 10.242188 -2.8125 10.046875 -2.28125 C 9.847656 -1.757812 9.5625 -1.3125 9.1875 -0.9375 C 8.8125 -0.570312 8.347656 -0.289062 7.796875 -0.09375 C 7.253906 0.101562 6.644531 0.203125 5.96875 0.203125 C 5.289062 0.203125 4.679688 0.101562 4.140625 -0.09375 C 3.609375 -0.289062 3.148438 -0.578125 2.765625 -0.953125 C 2.390625 -1.328125 2.097656 -1.78125 1.890625 -2.3125 C 1.691406 -2.84375 1.59375 -3.429688 1.59375 -4.078125 Z M 1.59375 -6.875 "/></g></g></g><g fill="#737373" fill-opacity="1"><g transform="translate(159.709943, 100.806163)"><g><path d="M 0.59375 -10.953125 L 2.09375 -10.953125 L 3.046875 -3.4375 C 3.066406 -3.238281 3.09375 -3 3.125 -2.71875 C 3.15625 -2.445312 3.179688 -2.175781 3.203125 -1.90625 C 3.242188 -1.59375 3.273438 -1.273438 3.296875 -0.953125 L 3.5 -0.953125 C 3.539062 -1.285156 3.582031 -1.601562 3.625 -1.90625 C 3.664062 -2.175781 3.703125 -2.453125 3.734375 -2.734375 C 3.773438 -3.023438 3.8125 -3.257812 3.84375 -3.4375 L 4.984375 -10.953125 L 6.953125 -10.953125 L 8.0625 -3.4375 C 8.09375 -3.238281 8.125 -3 8.15625 -2.71875 C 8.195312 -2.4375 8.238281 -2.160156 8.28125 -1.890625 C 8.320312 -1.585938 8.363281 -1.273438 8.40625 -0.953125 L 8.625 -0.953125 C 8.65625 -1.273438 8.691406 -1.59375 8.734375 -1.90625 C 8.765625 -2.175781 8.796875 -2.445312 8.828125 -2.71875 C 8.859375 -3 8.890625 -3.238281 8.921875 -3.4375 L 9.890625 -10.953125 L 11.34375 -10.953125 L 9.796875 0 L 7.359375 0 L 6.203125 -7.75 C 6.179688 -7.96875 6.160156 -8.195312 6.140625 -8.4375 C 6.117188 -8.6875 6.101562 -8.921875 6.09375 -9.140625 C 6.082031 -9.378906 6.078125 -9.617188 6.078125 -9.859375 L 5.875 -9.859375 C 5.863281 -9.617188 5.847656 -9.378906 5.828125 -9.140625 C 5.816406 -8.921875 5.800781 -8.6875 5.78125 -8.4375 C 5.757812 -8.195312 5.726562 -7.96875 5.6875 -7.75 L 4.5 0 L 2.125 0 Z M 0.59375 -10.953125 "/></g></g></g><g fill="#737373" fill-opacity="1"><g transform="translate(171.652139, 100.806163)"><g><path d="M 6.203125 -14.53125 L 6.203125 -3.1875 C 6.203125 -2.695312 6.332031 -2.3125 6.59375 -2.03125 C 6.863281 -1.757812 7.234375 -1.625 7.703125 -1.625 L 10.953125 -1.625 L 10.953125 0 L 7.703125 0 C 6.679688 0 5.878906 -0.28125 5.296875 -0.84375 C 4.710938 -1.40625 4.421875 -2.1875 4.421875 -3.1875 L 4.421875 -12.90625 L 0.796875 -12.90625 L 0.796875 -14.53125 Z M 6.203125 -14.53125 "/></g></g></g><g fill="#737373" fill-opacity="1"><g transform="translate(183.594335, 100.806163)"><g><path d="M 5.96875 0.203125 C 4.601562 0.203125 3.53125 -0.164062 2.75 -0.90625 C 1.976562 -1.65625 1.59375 -2.679688 1.59375 -3.984375 L 1.59375 -6.96875 C 1.59375 -8.269531 1.976562 -9.289062 2.75 -10.03125 C 3.53125 -10.769531 4.601562 -11.140625 5.96875 -11.140625 C 7.332031 -11.140625 8.398438 -10.769531 9.171875 -10.03125 C 9.953125 -9.289062 10.34375 -8.269531 10.34375 -6.96875 L 10.34375 -4.953125 L 3.390625 -4.953125 L 3.390625 -4.078125 C 3.390625 -3.242188 3.613281 -2.585938 4.0625 -2.109375 C 4.519531 -1.628906 5.15625 -1.390625 5.96875 -1.390625 C 6.570312 -1.390625 7.09375 -1.484375 7.53125 -1.671875 C 7.96875 -1.859375 8.289062 -2.128906 8.5 -2.484375 L 10.296875 -2.484375 C 10.066406 -1.648438 9.5625 -0.992188 8.78125 -0.515625 C 8.007812 -0.0351562 7.070312 0.203125 5.96875 0.203125 Z M 8.5625 -6.453125 L 8.5625 -6.96875 C 8.5625 -7.789062 8.332031 -8.425781 7.875 -8.875 C 7.425781 -9.332031 6.789062 -9.5625 5.96875 -9.5625 C 5.144531 -9.5625 4.507812 -9.332031 4.0625 -8.875 C 3.613281 -8.425781 3.390625 -7.789062 3.390625 -6.96875 L 3.390625 -6.453125 Z M 8.5625 -6.453125 "/></g></g></g><g fill="#737373" fill-opacity="1"><g transform="translate(195.536532, 100.806163)"><g><path d="M 1.59375 -6.875 C 1.59375 -7.53125 1.679688 -8.125 1.859375 -8.65625 C 2.035156 -9.1875 2.28125 -9.632812 2.59375 -10 C 2.914062 -10.363281 3.300781 -10.644531 3.75 -10.84375 C 4.207031 -11.039062 4.71875 -11.140625 5.28125 -11.140625 C 6.082031 -11.140625 6.75 -10.957031 7.28125 -10.59375 C 7.8125 -10.226562 8.164062 -9.71875 8.34375 -9.0625 L 8.5 -9.0625 C 8.488281 -9.28125 8.472656 -9.503906 8.453125 -9.734375 C 8.429688 -9.929688 8.414062 -10.140625 8.40625 -10.359375 C 8.40625 -10.578125 8.40625 -10.773438 8.40625 -10.953125 L 8.40625 -14.53125 L 10.1875 -14.53125 L 10.1875 0 L 8.5 0 L 8.5 -1.890625 L 8.34375 -1.890625 C 8.164062 -1.222656 7.8125 -0.707031 7.28125 -0.34375 C 6.75 0.0195312 6.082031 0.203125 5.28125 0.203125 C 4.71875 0.203125 4.207031 0.101562 3.75 -0.09375 C 3.300781 -0.289062 2.914062 -0.570312 2.59375 -0.9375 C 2.28125 -1.3125 2.035156 -1.757812 1.859375 -2.28125 C 1.679688 -2.8125 1.59375 -3.410156 1.59375 -4.078125 Z M 5.953125 -1.359375 C 6.691406 -1.359375 7.285156 -1.601562 7.734375 -2.09375 C 8.179688 -2.582031 8.40625 -3.242188 8.40625 -4.078125 L 8.40625 -6.875 C 8.40625 -7.707031 8.179688 -8.367188 7.734375 -8.859375 C 7.285156 -9.347656 6.691406 -9.59375 5.953125 -9.59375 C 5.140625 -9.59375 4.507812 -9.351562 4.0625 -8.875 C 3.613281 -8.394531 3.390625 -7.726562 3.390625 -6.875 L 3.390625 -4.078125 C 3.390625 -3.242188 3.613281 -2.582031 4.0625 -2.09375 C 4.519531 -1.601562 5.148438 -1.359375 5.953125 -1.359375 Z M 5.953125 -1.359375 "/></g></g></g><g fill="#737373" fill-opacity="1"><g transform="translate(207.478728, 100.806163)"><g><path d="M 1.453125 -6.96875 C 1.453125 -7.601562 1.535156 -8.175781 1.703125 -8.6875 C 1.878906 -9.207031 2.128906 -9.644531 2.453125 -10 C 2.785156 -10.363281 3.179688 -10.644531 3.640625 -10.84375 C 4.109375 -11.039062 4.628906 -11.140625 5.203125 -11.140625 C 5.992188 -11.140625 6.664062 -10.953125 7.21875 -10.578125 C 7.78125 -10.203125 8.160156 -9.660156 8.359375 -8.953125 L 8.5 -8.953125 L 8.5 -10.953125 L 10.1875 -10.953125 L 10.1875 -0.796875 C 10.1875 0.492188 9.804688 1.492188 9.046875 2.203125 C 8.296875 2.921875 7.238281 3.28125 5.875 3.28125 L 3.1875 3.28125 L 3.1875 1.65625 L 5.875 1.65625 C 6.664062 1.65625 7.285156 1.441406 7.734375 1.015625 C 8.179688 0.585938 8.40625 -0.015625 8.40625 -0.796875 L 8.40625 -1.1875 L 8.484375 -3.1875 L 8.359375 -3.1875 C 8.160156 -2.476562 7.78125 -1.9375 7.21875 -1.5625 C 6.664062 -1.1875 5.992188 -1 5.203125 -1 C 4.628906 -1 4.113281 -1.097656 3.65625 -1.296875 C 3.195312 -1.492188 2.800781 -1.769531 2.46875 -2.125 C 2.144531 -2.488281 1.894531 -2.925781 1.71875 -3.4375 C 1.539062 -3.957031 1.453125 -4.535156 1.453125 -5.171875 Z M 3.28125 -5.171875 C 3.28125 -4.347656 3.507812 -3.703125 3.96875 -3.234375 C 4.425781 -2.773438 5.054688 -2.546875 5.859375 -2.546875 C 6.648438 -2.546875 7.269531 -2.773438 7.71875 -3.234375 C 8.175781 -3.703125 8.40625 -4.347656 8.40625 -5.171875 L 8.40625 -6.96875 C 8.40625 -7.789062 8.175781 -8.429688 7.71875 -8.890625 C 7.269531 -9.359375 6.648438 -9.59375 5.859375 -9.59375 C 5.054688 -9.59375 4.425781 -9.359375 3.96875 -8.890625 C 3.507812 -8.429688 3.28125 -7.789062 3.28125 -6.96875 Z M 3.28125 -5.171875 "/></g></g></g><g fill="#737373" fill-opacity="1"><g transform="translate(219.420924, 100.806163)"><g><path d="M 5.96875 0.203125 C 4.601562 0.203125 3.53125 -0.164062 2.75 -0.90625 C 1.976562 -1.65625 1.59375 -2.679688 1.59375 -3.984375 L 1.59375 -6.96875 C 1.59375 -8.269531 1.976562 -9.289062 2.75 -10.03125 C 3.53125 -10.769531 4.601562 -11.140625 5.96875 -11.140625 C 7.332031 -11.140625 8.398438 -10.769531 9.171875 -10.03125 C 9.953125 -9.289062 10.34375 -8.269531 10.34375 -6.96875 L 10.34375 -4.953125 L 3.390625 -4.953125 L 3.390625 -4.078125 C 3.390625 -3.242188 3.613281 -2.585938 4.0625 -2.109375 C 4.519531 -1.628906 5.15625 -1.390625 5.96875 -1.390625 C 6.570312 -1.390625 7.09375 -1.484375 7.53125 -1.671875 C 7.96875 -1.859375 8.289062 -2.128906 8.5 -2.484375 L 10.296875 -2.484375 C 10.066406 -1.648438 9.5625 -0.992188 8.78125 -0.515625 C 8.007812 -0.0351562 7.070312 0.203125 5.96875 0.203125 Z M 8.5625 -6.453125 L 8.5625 -6.96875 C 8.5625 -7.789062 8.332031 -8.425781 7.875 -8.875 C 7.425781 -9.332031 6.789062 -9.5625 5.96875 -9.5625 C 5.144531 -9.5625 4.507812 -9.332031 4.0625 -8.875 C 3.613281 -8.425781 3.390625 -7.789062 3.390625 -6.96875 L 3.390625 -6.453125 Z M 8.5625 -6.453125 "/></g></g></g><g fill="#737373" fill-opacity="1"><g transform="translate(231.36312, 100.806163)"><g/></g></g><g fill="#737373" fill-opacity="1"><g transform="translate(243.305317, 100.806163)"><g><path d="M 1.5 0 L 1.5 -14.328125 L 3.71875 -14.328125 L 5.46875 -9.46875 C 5.539062 -9.320312 5.601562 -9.148438 5.65625 -8.953125 C 5.707031 -8.765625 5.753906 -8.59375 5.796875 -8.4375 C 5.847656 -8.238281 5.898438 -8.046875 5.953125 -7.859375 L 6.078125 -7.859375 C 6.128906 -8.046875 6.179688 -8.238281 6.234375 -8.4375 C 6.285156 -8.59375 6.335938 -8.765625 6.390625 -8.953125 C 6.453125 -9.148438 6.507812 -9.320312 6.5625 -9.46875 L 8.21875 -14.328125 L 10.453125 -14.328125 L 10.453125 0 L 8.796875 0 L 8.796875 -10.046875 C 8.796875 -10.265625 8.796875 -10.503906 8.796875 -10.765625 C 8.804688 -11.035156 8.828125 -11.296875 8.859375 -11.546875 C 8.867188 -11.835938 8.878906 -12.128906 8.890625 -12.421875 L 8.78125 -12.421875 C 8.695312 -12.140625 8.617188 -11.867188 8.546875 -11.609375 C 8.472656 -11.367188 8.394531 -11.109375 8.3125 -10.828125 C 8.226562 -10.546875 8.144531 -10.285156 8.0625 -10.046875 L 6.828125 -6.375 L 5.15625 -6.375 L 3.921875 -10.046875 C 3.835938 -10.304688 3.75 -10.570312 3.65625 -10.84375 C 3.5625 -11.125 3.484375 -11.382812 3.421875 -11.625 C 3.335938 -11.90625 3.257812 -12.175781 3.1875 -12.4375 L 3.078125 -12.4375 C 3.097656 -12.144531 3.113281 -11.851562 3.125 -11.5625 C 3.125 -11.320312 3.125 -11.066406 3.125 -10.796875 C 3.132812 -10.523438 3.140625 -10.273438 3.140625 -10.046875 L 3.140625 0 Z M 1.5 0 "/></g></g></g><g fill="#737373" fill-opacity="1"><g transform="translate(255.247513, 100.806163)"><g><path d="M 1.25 -3.1875 C 1.25 -3.707031 1.335938 -4.175781 1.515625 -4.59375 C 1.703125 -5.007812 1.960938 -5.363281 2.296875 -5.65625 C 2.640625 -5.945312 3.046875 -6.171875 3.515625 -6.328125 C 3.992188 -6.484375 4.535156 -6.5625 5.140625 -6.5625 L 8.40625 -6.5625 L 8.40625 -7.46875 C 8.40625 -8.144531 8.179688 -8.671875 7.734375 -9.046875 C 7.285156 -9.421875 6.644531 -9.609375 5.8125 -9.609375 C 5.195312 -9.609375 4.675781 -9.492188 4.25 -9.265625 C 3.820312 -9.046875 3.535156 -8.738281 3.390625 -8.34375 L 1.59375 -8.34375 C 1.78125 -9.207031 2.253906 -9.890625 3.015625 -10.390625 C 3.773438 -10.890625 4.722656 -11.140625 5.859375 -11.140625 C 7.210938 -11.140625 8.269531 -10.820312 9.03125 -10.1875 C 9.800781 -9.5625 10.1875 -8.6875 10.1875 -7.5625 L 10.1875 0 L 8.5625 0 L 8.5625 -2.09375 L 8.40625 -2.09375 C 8.226562 -1.382812 7.820312 -0.820312 7.1875 -0.40625 C 6.550781 0 5.773438 0.203125 4.859375 0.203125 C 3.753906 0.203125 2.875 -0.0976562 2.21875 -0.703125 C 1.570312 -1.316406 1.25 -2.144531 1.25 -3.1875 Z M 5.25 -1.28125 C 5.707031 -1.28125 6.128906 -1.335938 6.515625 -1.453125 C 6.898438 -1.566406 7.226562 -1.734375 7.5 -1.953125 C 7.78125 -2.179688 8 -2.441406 8.15625 -2.734375 C 8.320312 -3.023438 8.40625 -3.34375 8.40625 -3.6875 L 8.40625 -5.171875 L 5.171875 -5.171875 C 4.515625 -5.171875 3.992188 -5 3.609375 -4.65625 C 3.234375 -4.3125 3.046875 -3.832031 3.046875 -3.21875 C 3.046875 -2.613281 3.238281 -2.140625 3.625 -1.796875 C 4.007812 -1.453125 4.550781 -1.28125 5.25 -1.28125 Z M 5.25 -1.28125 "/></g></g></g><g fill="#737373" fill-opacity="1"><g transform="translate(267.189709, 100.806163)"><g><path d="M 1.75 0 L 1.75 -10.953125 L 3.4375 -10.953125 L 3.4375 -9.0625 L 3.609375 -9.0625 C 3.773438 -9.71875 4.117188 -10.226562 4.640625 -10.59375 C 5.171875 -10.957031 5.828125 -11.140625 6.609375 -11.140625 C 7.148438 -11.140625 7.644531 -11.046875 8.09375 -10.859375 C 8.539062 -10.679688 8.914062 -10.421875 9.21875 -10.078125 C 9.53125 -9.742188 9.773438 -9.335938 9.953125 -8.859375 C 10.128906 -8.390625 10.21875 -7.863281 10.21875 -7.28125 L 10.21875 0 L 8.421875 0 L 8.421875 -6.984375 C 8.421875 -7.816406 8.207031 -8.46875 7.78125 -8.9375 C 7.351562 -9.40625 6.765625 -9.640625 6.015625 -9.640625 C 5.253906 -9.640625 4.648438 -9.390625 4.203125 -8.890625 C 3.765625 -8.390625 3.546875 -7.71875 3.546875 -6.875 L 3.546875 0 Z M 1.75 0 "/></g></g></g><g fill="#737373" fill-opacity="1"><g transform="translate(279.131906, 100.806163)"><g><path d="M 1.25 -3.1875 C 1.25 -3.707031 1.335938 -4.175781 1.515625 -4.59375 C 1.703125 -5.007812 1.960938 -5.363281 2.296875 -5.65625 C 2.640625 -5.945312 3.046875 -6.171875 3.515625 -6.328125 C 3.992188 -6.484375 4.535156 -6.5625 5.140625 -6.5625 L 8.40625 -6.5625 L 8.40625 -7.46875 C 8.40625 -8.144531 8.179688 -8.671875 7.734375 -9.046875 C 7.285156 -9.421875 6.644531 -9.609375 5.8125 -9.609375 C 5.195312 -9.609375 4.675781 -9.492188 4.25 -9.265625 C 3.820312 -9.046875 3.535156 -8.738281 3.390625 -8.34375 L 1.59375 -8.34375 C 1.78125 -9.207031 2.253906 -9.890625 3.015625 -10.390625 C 3.773438 -10.890625 4.722656 -11.140625 5.859375 -11.140625 C 7.210938 -11.140625 8.269531 -10.820312 9.03125 -10.1875 C 9.800781 -9.5625 10.1875 -8.6875 10.1875 -7.5625 L 10.1875 0 L 8.5625 0 L 8.5625 -2.09375 L 8.40625 -2.09375 C 8.226562 -1.382812 7.820312 -0.820312 7.1875 -0.40625 C 6.550781 0 5.773438 0.203125 4.859375 0.203125 C 3.753906 0.203125 2.875 -0.0976562 2.21875 -0.703125 C 1.570312 -1.316406 1.25 -2.144531 1.25 -3.1875 Z M 5.25 -1.28125 C 5.707031 -1.28125 6.128906 -1.335938 6.515625 -1.453125 C 6.898438 -1.566406 7.226562 -1.734375 7.5 -1.953125 C 7.78125 -2.179688 8 -2.441406 8.15625 -2.734375 C 8.320312 -3.023438 8.40625 -3.34375 8.40625 -3.6875 L 8.40625 -5.171875 L 5.171875 -5.171875 C 4.515625 -5.171875 3.992188 -5 3.609375 -4.65625 C 3.234375 -4.3125 3.046875 -3.832031 3.046875 -3.21875 C 3.046875 -2.613281 3.238281 -2.140625 3.625 -1.796875 C 4.007812 -1.453125 4.550781 -1.28125 5.25 -1.28125 Z M 5.25 -1.28125 "/></g></g></g><g fill="#737373" fill-opacity="1"><g transform="translate(291.074113, 100.806163)"><g><path d="M 1.453125 -6.96875 C 1.453125 -7.601562 1.535156 -8.175781 1.703125 -8.6875 C 1.878906 -9.207031 2.128906 -9.644531 2.453125 -10 C 2.785156 -10.363281 3.179688 -10.644531 3.640625 -10.84375 C 4.109375 -11.039062 4.628906 -11.140625 5.203125 -11.140625 C 5.992188 -11.140625 6.664062 -10.953125 7.21875 -10.578125 C 7.78125 -10.203125 8.160156 -9.660156 8.359375 -8.953125 L 8.5 -8.953125 L 8.5 -10.953125 L 10.1875 -10.953125 L 10.1875 -0.796875 C 10.1875 0.492188 9.804688 1.492188 9.046875 2.203125 C 8.296875 2.921875 7.238281 3.28125 5.875 3.28125 L 3.1875 3.28125 L 3.1875 1.65625 L 5.875 1.65625 C 6.664062 1.65625 7.285156 1.441406 7.734375 1.015625 C 8.179688 0.585938 8.40625 -0.015625 8.40625 -0.796875 L 8.40625 -1.1875 L 8.484375 -3.1875 L 8.359375 -3.1875 C 8.160156 -2.476562 7.78125 -1.9375 7.21875 -1.5625 C 6.664062 -1.1875 5.992188 -1 5.203125 -1 C 4.628906 -1 4.113281 -1.097656 3.65625 -1.296875 C 3.195312 -1.492188 2.800781 -1.769531 2.46875 -2.125 C 2.144531 -2.488281 1.894531 -2.925781 1.71875 -3.4375 C 1.539062 -3.957031 1.453125 -4.535156 1.453125 -5.171875 Z M 3.28125 -5.171875 C 3.28125 -4.347656 3.507812 -3.703125 3.96875 -3.234375 C 4.425781 -2.773438 5.054688 -2.546875 5.859375 -2.546875 C 6.648438 -2.546875 7.269531 -2.773438 7.71875 -3.234375 C 8.175781 -3.703125 8.40625 -4.347656 8.40625 -5.171875 L 8.40625 -6.96875 C 8.40625 -7.789062 8.175781 -8.429688 7.71875 -8.890625 C 7.269531 -9.359375 6.648438 -9.59375 5.859375 -9.59375 C 5.054688 -9.59375 4.425781 -9.359375 3.96875 -8.890625 C 3.507812 -8.429688 3.28125 -7.789062 3.28125 -6.96875 Z M 3.28125 -5.171875 "/></g></g></g><g fill="#737373" fill-opacity="1"><g transform="translate(303.016298, 100.806163)"><g><path d="M 5.96875 0.203125 C 4.601562 0.203125 3.53125 -0.164062 2.75 -0.90625 C 1.976562 -1.65625 1.59375 -2.679688 1.59375 -3.984375 L 1.59375 -6.96875 C 1.59375 -8.269531 1.976562 -9.289062 2.75 -10.03125 C 3.53125 -10.769531 4.601562 -11.140625 5.96875 -11.140625 C 7.332031 -11.140625 8.398438 -10.769531 9.171875 -10.03125 C 9.953125 -9.289062 10.34375 -8.269531 10.34375 -6.96875 L 10.34375 -4.953125 L 3.390625 -4.953125 L 3.390625 -4.078125 C 3.390625 -3.242188 3.613281 -2.585938 4.0625 -2.109375 C 4.519531 -1.628906 5.15625 -1.390625 5.96875 -1.390625 C 6.570312 -1.390625 7.09375 -1.484375 7.53125 -1.671875 C 7.96875 -1.859375 8.289062 -2.128906 8.5 -2.484375 L 10.296875 -2.484375 C 10.066406 -1.648438 9.5625 -0.992188 8.78125 -0.515625 C 8.007812 -0.0351562 7.070312 0.203125 5.96875 0.203125 Z M 8.5625 -6.453125 L 8.5625 -6.96875 C 8.5625 -7.789062 8.332031 -8.425781 7.875 -8.875 C 7.425781 -9.332031 6.789062 -9.5625 5.96875 -9.5625 C 5.144531 -9.5625 4.507812 -9.332031 4.0625 -8.875 C 3.613281 -8.425781 3.390625 -7.789062 3.390625 -6.96875 L 3.390625 -6.453125 Z M 8.5625 -6.453125 "/></g></g></g><g fill="#737373" fill-opacity="1"><g transform="translate(314.958483, 100.806163)"><g><path d="M 1.234375 -10.953125 L 2.640625 -10.953125 L 2.640625 -9.34375 L 2.78125 -9.34375 C 2.832031 -9.925781 3.019531 -10.367188 3.34375 -10.671875 C 3.664062 -10.984375 4.09375 -11.140625 4.625 -11.140625 C 5.15625 -11.140625 5.59375 -10.984375 5.9375 -10.671875 C 6.28125 -10.367188 6.519531 -9.925781 6.65625 -9.34375 L 6.75 -9.34375 C 6.800781 -9.925781 6.984375 -10.367188 7.296875 -10.671875 C 7.617188 -10.984375 8.046875 -11.140625 8.578125 -11.140625 C 9.253906 -11.140625 9.773438 -10.890625 10.140625 -10.390625 C 10.515625 -9.898438 10.703125 -9.21875 10.703125 -8.34375 L 10.703125 0 L 9.15625 0 L 9.15625 -8.34375 C 9.15625 -8.800781 9.050781 -9.15625 8.84375 -9.40625 C 8.644531 -9.65625 8.351562 -9.78125 7.96875 -9.78125 C 7.15625 -9.78125 6.75 -9.265625 6.75 -8.234375 L 6.75 0 L 5.203125 0 L 5.203125 -8.34375 C 5.203125 -8.726562 5.109375 -9.0625 4.921875 -9.34375 C 4.742188 -9.632812 4.4375 -9.78125 4 -9.78125 C 3.601562 -9.78125 3.289062 -9.632812 3.0625 -9.34375 C 2.875 -9.070312 2.78125 -8.703125 2.78125 -8.234375 L 2.78125 0 L 1.234375 0 Z M 1.234375 -10.953125 "/></g></g></g><g fill="#737373" fill-opacity="1"><g transform="translate(326.900691, 100.806163)"><g><path d="M 5.96875 0.203125 C 4.601562 0.203125 3.53125 -0.164062 2.75 -0.90625 C 1.976562 -1.65625 1.59375 -2.679688 1.59375 -3.984375 L 1.59375 -6.96875 C 1.59375 -8.269531 1.976562 -9.289062 2.75 -10.03125 C 3.53125 -10.769531 4.601562 -11.140625 5.96875 -11.140625 C 7.332031 -11.140625 8.398438 -10.769531 9.171875 -10.03125 C 9.953125 -9.289062 10.34375 -8.269531 10.34375 -6.96875 L 10.34375 -4.953125 L 3.390625 -4.953125 L 3.390625 -4.078125 C 3.390625 -3.242188 3.613281 -2.585938 4.0625 -2.109375 C 4.519531 -1.628906 5.15625 -1.390625 5.96875 -1.390625 C 6.570312 -1.390625 7.09375 -1.484375 7.53125 -1.671875 C 7.96875 -1.859375 8.289062 -2.128906 8.5 -2.484375 L 10.296875 -2.484375 C 10.066406 -1.648438 9.5625 -0.992188 8.78125 -0.515625 C 8.007812 -0.0351562 7.070312 0.203125 5.96875 0.203125 Z M 8.5625 -6.453125 L 8.5625 -6.96875 C 8.5625 -7.789062 8.332031 -8.425781 7.875 -8.875 C 7.425781 -9.332031 6.789062 -9.5625 5.96875 -9.5625 C 5.144531 -9.5625 4.507812 -9.332031 4.0625 -8.875 C 3.613281 -8.425781 3.390625 -7.789062 3.390625 -6.96875 L 3.390625 -6.453125 Z M 8.5625 -6.453125 "/></g></g></g><g fill="#737373" fill-opacity="1"><g transform="translate(338.842899, 100.806163)"><g><path d="M 1.75 0 L 1.75 -10.953125 L 3.4375 -10.953125 L 3.4375 -9.0625 L 3.609375 -9.0625 C 3.773438 -9.71875 4.117188 -10.226562 4.640625 -10.59375 C 5.171875 -10.957031 5.828125 -11.140625 6.609375 -11.140625 C 7.148438 -11.140625 7.644531 -11.046875 8.09375 -10.859375 C 8.539062 -10.679688 8.914062 -10.421875 9.21875 -10.078125 C 9.53125 -9.742188 9.773438 -9.335938 9.953125 -8.859375 C 10.128906 -8.390625 10.21875 -7.863281 10.21875 -7.28125 L 10.21875 0 L 8.421875 0 L 8.421875 -6.984375 C 8.421875 -7.816406 8.207031 -8.46875 7.78125 -8.9375 C 7.351562 -9.40625 6.765625 -9.640625 6.015625 -9.640625 C 5.253906 -9.640625 4.648438 -9.390625 4.203125 -8.890625 C 3.765625 -8.390625 3.546875 -7.71875 3.546875 -6.875 L 3.546875 0 Z M 1.75 0 "/></g></g></g><g fill="#737373" fill-opacity="1"><g transform="translate(350.785084, 100.806163)"><g><path d="M 1.1875 -10.953125 L 4.375 -10.953125 L 4.375 -14.328125 L 6.171875 -14.328125 L 6.171875 -10.953125 L 10.453125 -10.953125 L 10.453125 -9.3125 L 6.171875 -9.3125 L 6.171875 -2.828125 C 6.171875 -2.453125 6.285156 -2.15625 6.515625 -1.9375 C 6.753906 -1.726562 7.070312 -1.625 7.46875 -1.625 L 10.25 -1.625 L 10.25 0 L 7.46875 0 C 6.519531 0 5.765625 -0.253906 5.203125 -0.765625 C 4.648438 -1.285156 4.375 -1.972656 4.375 -2.828125 L 4.375 -9.3125 L 1.1875 -9.3125 Z M 1.1875 -10.953125 "/></g></g></g></svg>