<svg xmlns="http://www.w3.org/2000/svg" xmlns:xlink="http://www.w3.org/1999/xlink" width="500" zoomAndPan="magnify" viewBox="0 0 375 374.999991" height="500" preserveAspectRatio="xMidYMid meet" version="1.0"><defs><clipPath id="454bed5ee7"><path d="M 187.5 0 C 83.945312 0 0 83.945312 0 187.5 C 0 291.054688 83.945312 375 187.5 375 C 291.054688 375 375 291.054688 375 187.5 C 375 83.945312 291.054688 0 187.5 0 Z M 187.5 0 " clip-rule="nonzero"/></clipPath><clipPath id="3b818fb0fb"><path d="M 0 0 L 375 0 L 375 375 L 0 375 Z M 0 0 " clip-rule="nonzero"/></clipPath><clipPath id="7338403941"><path d="M 187.5 0 C 83.945312 0 0 83.945312 0 187.5 C 0 291.054688 83.945312 375 187.5 375 C 291.054688 375 375 291.054688 375 187.5 C 375 83.945312 291.054688 0 187.5 0 Z M 187.5 0 " clip-rule="nonzero"/></clipPath><linearGradient x1="128" gradientTransform="matrix(1.464844, 0, 0, 1.464844, 0.0000045, 0)" y1="0" x2="128" gradientUnits="userSpaceOnUse" y2="256" id="597f888b7f"><stop stop-opacity="1" stop-color="rgb(0%, 74.899292%, 38.819885%)" offset="0"/><stop stop-opacity="1" stop-color="rgb(0%, 74.772644%, 38.754272%)" offset="0.015625"/><stop stop-opacity="1" stop-color="rgb(0%, 74.5224%, 38.626099%)" offset="0.03125"/><stop stop-opacity="1" stop-color="rgb(0%, 74.27063%, 38.497925%)" offset="0.046875"/><stop stop-opacity="1" stop-color="rgb(0%, 74.01886%, 38.368225%)" offset="0.0625"/><stop stop-opacity="1" stop-color="rgb(0%, 73.768616%, 38.240051%)" offset="0.078125"/><stop stop-opacity="1" stop-color="rgb(0%, 73.516846%, 38.111877%)" offset="0.09375"/><stop stop-opacity="1" stop-color="rgb(0%, 73.265076%, 37.983704%)" offset="0.109375"/><stop stop-opacity="1" stop-color="rgb(0%, 73.014832%, 37.854004%)" offset="0.125"/><stop stop-opacity="1" stop-color="rgb(0%, 72.763062%, 37.72583%)" offset="0.140625"/><stop stop-opacity="1" stop-color="rgb(0%, 72.511292%, 37.597656%)" offset="0.15625"/><stop stop-opacity="1" stop-color="rgb(0%, 72.261047%, 37.469482%)" offset="0.171875"/><stop stop-opacity="1" stop-color="rgb(0%, 72.009277%, 37.339783%)" offset="0.1875"/><stop stop-opacity="1" stop-color="rgb(0%, 71.757507%, 37.211609%)" offset="0.203125"/><stop stop-opacity="1" stop-color="rgb(0%, 71.507263%, 37.083435%)" offset="0.21875"/><stop stop-opacity="1" stop-color="rgb(0%, 71.255493%, 36.953735%)" offset="0.234375"/><stop stop-opacity="1" stop-color="rgb(0%, 71.003723%, 36.825562%)" offset="0.25"/><stop stop-opacity="1" stop-color="rgb(0%, 70.753479%, 36.697388%)" offset="0.265625"/><stop stop-opacity="1" stop-color="rgb(0%, 70.501709%, 36.569214%)" offset="0.28125"/><stop stop-opacity="1" stop-color="rgb(0%, 70.249939%, 36.439514%)" offset="0.296875"/><stop stop-opacity="1" stop-color="rgb(0%, 69.999695%, 36.31134%)" offset="0.3125"/><stop stop-opacity="1" stop-color="rgb(0%, 69.747925%, 36.183167%)" offset="0.328125"/><stop stop-opacity="1" stop-color="rgb(0%, 69.496155%, 36.054993%)" offset="0.34375"/><stop stop-opacity="1" stop-color="rgb(0%, 69.245911%, 35.925293%)" offset="0.359375"/><stop stop-opacity="1" stop-color="rgb(0%, 68.994141%, 35.797119%)" offset="0.375"/><stop stop-opacity="1" stop-color="rgb(0%, 68.742371%, 35.668945%)" offset="0.390625"/><stop stop-opacity="1" stop-color="rgb(0%, 68.492126%, 35.539246%)" offset="0.40625"/><stop stop-opacity="1" stop-color="rgb(0%, 68.240356%, 35.411072%)" offset="0.421875"/><stop stop-opacity="1" stop-color="rgb(0%, 67.990112%, 35.282898%)" offset="0.4375"/><stop stop-opacity="1" stop-color="rgb(0%, 67.738342%, 35.154724%)" offset="0.453125"/><stop stop-opacity="1" stop-color="rgb(0%, 67.486572%, 35.025024%)" offset="0.46875"/><stop stop-opacity="1" stop-color="rgb(0%, 67.236328%, 34.896851%)" offset="0.484375"/><stop stop-opacity="1" stop-color="rgb(0%, 66.984558%, 34.768677%)" offset="0.5"/><stop stop-opacity="1" stop-color="rgb(0%, 66.732788%, 34.638977%)" offset="0.515625"/><stop stop-opacity="1" stop-color="rgb(0%, 66.482544%, 34.510803%)" offset="0.53125"/><stop stop-opacity="1" stop-color="rgb(0%, 66.230774%, 34.382629%)" offset="0.546875"/><stop stop-opacity="1" stop-color="rgb(0%, 65.979004%, 34.254456%)" offset="0.5625"/><stop stop-opacity="1" stop-color="rgb(0%, 65.72876%, 34.124756%)" offset="0.578125"/><stop stop-opacity="1" stop-color="rgb(0%, 65.47699%, 33.996582%)" offset="0.59375"/><stop stop-opacity="1" stop-color="rgb(0%, 65.22522%, 33.868408%)" offset="0.609375"/><stop stop-opacity="1" stop-color="rgb(0%, 64.974976%, 33.740234%)" offset="0.625"/><stop stop-opacity="1" stop-color="rgb(0%, 64.723206%, 33.610535%)" offset="0.640625"/><stop stop-opacity="1" stop-color="rgb(0%, 64.471436%, 33.482361%)" offset="0.65625"/><stop stop-opacity="1" stop-color="rgb(0%, 64.221191%, 33.354187%)" offset="0.671875"/><stop stop-opacity="1" stop-color="rgb(0%, 63.969421%, 33.224487%)" offset="0.6875"/><stop stop-opacity="1" stop-color="rgb(0%, 63.717651%, 33.096313%)" offset="0.703125"/><stop stop-opacity="1" stop-color="rgb(0%, 63.467407%, 32.96814%)" offset="0.71875"/><stop stop-opacity="1" stop-color="rgb(0%, 63.215637%, 32.839966%)" offset="0.734375"/><stop stop-opacity="1" stop-color="rgb(0%, 62.963867%, 32.710266%)" offset="0.75"/><stop stop-opacity="1" stop-color="rgb(0%, 62.713623%, 32.582092%)" offset="0.765625"/><stop stop-opacity="1" stop-color="rgb(0%, 62.461853%, 32.453918%)" offset="0.78125"/><stop stop-opacity="1" stop-color="rgb(0%, 62.210083%, 32.325745%)" offset="0.796875"/><stop stop-opacity="1" stop-color="rgb(0%, 61.959839%, 32.196045%)" offset="0.8125"/><stop stop-opacity="1" stop-color="rgb(0%, 61.708069%, 32.067871%)" offset="0.828125"/><stop stop-opacity="1" stop-color="rgb(0%, 61.456299%, 31.939697%)" offset="0.84375"/><stop stop-opacity="1" stop-color="rgb(0%, 61.206055%, 31.809998%)" offset="0.859375"/><stop stop-opacity="1" stop-color="rgb(0%, 60.954285%, 31.681824%)" offset="0.875"/><stop stop-opacity="1" stop-color="rgb(0%, 60.702515%, 31.55365%)" offset="0.890625"/><stop stop-opacity="1" stop-color="rgb(0%, 60.452271%, 31.425476%)" offset="0.90625"/><stop stop-opacity="1" stop-color="rgb(0%, 60.2005%, 31.295776%)" offset="0.921875"/><stop stop-opacity="1" stop-color="rgb(0%, 59.94873%, 31.167603%)" offset="0.9375"/><stop stop-opacity="1" stop-color="rgb(0%, 59.698486%, 31.039429%)" offset="0.953125"/><stop stop-opacity="1" stop-color="rgb(0%, 59.446716%, 30.911255%)" offset="0.96875"/><stop stop-opacity="1" stop-color="rgb(0%, 59.194946%, 30.781555%)" offset="0.984375"/><stop stop-opacity="1" stop-color="rgb(0%, 58.944702%, 30.653381%)" offset="1"/></linearGradient><clipPath id="f72ceceb57"><rect x="0" width="375" y="0" height="375"/></clipPath><clipPath id="c58e9f1ab7"><path d="M 97.976562 51.472656 L 267.183594 51.472656 L 267.183594 220.679688 L 97.976562 220.679688 Z M 97.976562 51.472656 " clip-rule="nonzero"/></clipPath><clipPath id="c981b082c6"><path d="M 182.582031 51.472656 C 135.855469 51.472656 97.976562 89.351562 97.976562 136.074219 C 97.976562 182.800781 135.855469 220.679688 182.582031 220.679688 C 229.304688 220.679688 267.183594 182.800781 267.183594 136.074219 C 267.183594 89.351562 229.304688 51.472656 182.582031 51.472656 Z M 182.582031 51.472656 " clip-rule="nonzero"/></clipPath><clipPath id="61e2132aa7"><path d="M 236.214844 18.792969 L 288.632812 18.792969 L 288.632812 71.210938 L 236.214844 71.210938 Z M 236.214844 18.792969 " clip-rule="nonzero"/></clipPath><clipPath id="4afadf0940"><path d="M 262.421875 18.792969 C 247.949219 18.792969 236.214844 30.527344 236.214844 45 C 236.214844 59.476562 247.949219 71.210938 262.421875 71.210938 C 276.898438 71.210938 288.632812 59.476562 288.632812 45 C 288.632812 30.527344 276.898438 18.792969 262.421875 18.792969 Z M 262.421875 18.792969 " clip-rule="nonzero"/></clipPath><clipPath id="ee84347000"><path d="M 83.554688 275.628906 L 135.972656 275.628906 L 135.972656 328.046875 L 83.554688 328.046875 Z M 83.554688 275.628906 " clip-rule="nonzero"/></clipPath><clipPath id="ef29e73101"><path d="M 109.761719 275.628906 C 95.289062 275.628906 83.554688 287.363281 83.554688 301.839844 C 83.554688 316.3125 95.289062 328.046875 109.761719 328.046875 C 124.238281 328.046875 135.972656 316.3125 135.972656 301.839844 C 135.972656 287.363281 124.238281 275.628906 109.761719 275.628906 Z M 109.761719 275.628906 " clip-rule="nonzero"/></clipPath></defs><g clip-path="url(#454bed5ee7)"><g transform="matrix(1, 0, 0, 1, 0, 0)"><g clip-path="url(#f72ceceb57)"><g clip-path="url(#3b818fb0fb)"><g clip-path="url(#7338403941)"><rect x="-82.5" fill="url(#597f888b7f)" width="540" height="539.999987" y="-82.499998"/></g></g></g></g></g><g clip-path="url(#c58e9f1ab7)"><g clip-path="url(#c981b082c6)"><path stroke-linecap="butt" transform="matrix(0.75, 0, 0, 0.75, 97.977185, 51.471486)" fill="none" stroke-linejoin="miter" d="M 112.806469 0.00156004 C 50.504381 0.00156004 -0.000830355 50.506772 -0.000830355 112.803651 C -0.000830355 175.105738 50.504381 225.61095 112.806469 225.61095 C 175.103348 225.61095 225.608559 175.105738 225.608559 112.803651 C 225.608559 50.506772 175.103348 0.00156004 112.806469 0.00156004 Z M 112.806469 0.00156004 " stroke="#fafafa" stroke-width="112" stroke-opacity="1" stroke-miterlimit="4"/></g></g><g clip-path="url(#61e2132aa7)"><g clip-path="url(#4afadf0940)"><path stroke-linecap="butt" transform="matrix(0.75, 0, 0, 0.75, 236.213939, 18.791877)" fill="none" stroke-linejoin="miter" d="M 34.943918 0.00145587 C 15.647041 0.00145587 0.00120688 15.64729 0.00120688 34.944167 C 0.00120688 54.246251 15.647041 69.892085 34.943918 69.892085 C 54.246002 69.892085 69.891836 54.246251 69.891836 34.944167 C 69.891836 15.64729 54.246002 0.00145587 34.943918 0.00145587 Z M 34.943918 0.00145587 " stroke="#fafafa" stroke-width="40" stroke-opacity="1" stroke-miterlimit="4"/></g></g><path stroke-linecap="butt" transform="matrix(0.53033, -0.53033, 0.53033, 0.53033, 200.05089, 80.33182)" fill="none" stroke-linejoin="miter" d="M -0.000301169 25.500136 L 68.633255 25.500136 " stroke="#fafafa" stroke-width="51" stroke-opacity="1" stroke-miterlimit="4"/><g clip-path="url(#ee84347000)"><g clip-path="url(#ef29e73101)"><path stroke-linecap="butt" transform="matrix(0.75, 0, 0, 0.75, 83.554043, 275.629523)" fill="none" stroke-linejoin="miter" d="M 34.94357 -0.000821934 C 15.646694 -0.000821934 0.000859316 15.645012 0.000859316 34.947097 C 0.000859316 54.243973 15.646694 69.889808 34.94357 69.889808 C 54.245655 69.889808 69.891489 54.243973 69.891489 34.947097 C 69.891489 15.645012 54.245655 -0.000821934 34.94357 -0.000821934 Z M 34.94357 -0.000821934 " stroke="#fafafa" stroke-width="40" stroke-opacity="1" stroke-miterlimit="4"/></g></g><path stroke-linecap="butt" transform="matrix(0.75, 0, 0, 0.75, 90.642903, 202.238761)" fill="none" stroke-linejoin="miter" d="M 122.585512 -0.000639826 L 122.585512 49.514988 C 122.585512 62.764989 133.330304 73.51499 146.585513 73.51499 L 214.20531 73.51499 C 227.460519 73.51499 238.205311 84.259782 238.205311 97.514992 L 238.205311 160.645204 C 238.205311 173.900413 227.460519 184.645206 214.20531 184.645206 L 39.960506 184.645206 C 31.976131 184.645206 25.502172 178.171247 25.502172 170.186871 L 25.502172 155.728537 " stroke="#fafafa" stroke-width="51" stroke-opacity="1" stroke-miterlimit="4"/></svg>